<?xml version="1.0" encoding="UTF-8"?>
<svg version="1.1" xmlns="http://www.w3.org/2000/svg" width="1097" height="227">
<path d="M0 0 C5.10842715 3.53112394 8.94395879 7.73763412 10.75 13.8125 C10.75 14.8025 10.75 15.7925 10.75 16.8125 C13.72 16.8125 16.69 16.8125 19.75 16.8125 C19.75 13.8425 19.75 10.8725 19.75 7.8125 C22.72880885 6.81956372 24.76601198 6.67843589 27.875 6.6875 C28.76445313 6.68492188 29.65390625 6.68234375 30.5703125 6.6796875 C32.75 6.8125 32.75 6.8125 33.75 7.8125 C33.83858646 10.55144085 33.86523479 13.2650327 33.84765625 16.00390625 C33.8462413 16.82374496 33.84482635 17.64358368 33.84336853 18.48826599 C33.83775289 21.11721382 33.82519779 23.74607773 33.8125 26.375 C33.80748701 28.15299357 33.80292376 29.93098846 33.79882812 31.70898438 C33.78862752 36.07688158 33.76905532 40.4445964 33.75 44.8125 C42.99 44.8125 52.23 44.8125 61.75 44.8125 C64.286875 49.2675 64.286875 49.2675 66.875 53.8125 C71.53756679 61.98533023 76.25315129 70.12587039 81 78.25 C81.8830481 79.76750854 81.8830481 79.76750854 82.78393555 81.31567383 C85.30831536 85.65175511 87.84031149 89.97977508 90.44921875 94.265625 C90.8349707 94.90959229 91.22072266 95.55355957 91.61816406 96.21704102 C92.59897757 97.85240199 93.59373567 99.47937855 94.58984375 101.10546875 C95.99023857 104.37305667 95.70763642 105.43968668 94.75 108.8125 C93.82153588 110.68424232 92.81569666 112.51855057 91.7578125 114.3203125 C91.14035156 115.38048584 90.52289063 116.44065918 89.88671875 117.53295898 C89.22285156 118.65645752 88.55898437 119.77995605 87.875 120.9375 C87.19073499 122.10645954 86.50714678 123.27581551 85.82421875 124.44555664 C84.45136363 126.79546634 83.07507951 129.1433145 81.69628906 131.48974609 C79.48126262 135.27129525 77.29674248 139.06959681 75.11621094 142.87109375 C63.54755304 163.01494696 63.54755304 163.01494696 60.75 165.8125 C58.65506738 165.93303263 56.55603911 165.98276569 54.45776367 166.00537109 C53.80080002 166.01354858 53.14383636 166.02172607 52.46696472 166.03015137 C50.28397545 166.05504622 48.10105142 166.07153249 45.91796875 166.0859375 C45.17366419 166.09126118 44.42935963 166.09658485 43.66250038 166.10206985 C39.72219496 166.12882053 35.78192142 166.14818831 31.84155273 166.16259766 C27.76899994 166.17924145 23.69725709 166.22401006 19.62501049 166.2749691 C16.49631309 166.30861281 13.36780845 166.32017189 10.23894691 166.32582474 C8.73779429 166.33254643 7.23665476 166.3477926 5.73567772 166.37171555 C3.63325332 166.40330953 1.53301901 166.40341442 -0.56958008 166.39599609 C-1.76569412 166.40408295 -2.96180817 166.4121698 -4.19416809 166.42050171 C-7.25 165.8125 -7.25 165.8125 -9.55825806 163.45330811 C-11.36900546 160.62673255 -13.10301227 157.79063124 -14.75390625 154.8671875 C-15.07385056 154.30377151 -15.39379486 153.74035553 -15.72343445 153.15986633 C-16.75705523 151.33793968 -17.7847353 149.5127353 -18.8125 147.6875 C-19.88623619 145.79201628 -20.96150303 143.89740593 -22.03677368 142.00279236 C-22.7537465 140.73914175 -23.47019865 139.47519557 -24.18612671 138.21095276 C-27.2577833 132.78811047 -30.369307 127.38897864 -33.5 122 C-35.99524517 117.70354516 -35.99524517 117.70354516 -37.14257812 115.70068359 C-37.889799 114.42665224 -38.66555452 113.16899081 -39.46679688 111.92822266 C-42.30252298 107.4237808 -42.30252298 107.4237808 -42.04882812 104.47119141 C-41.10622849 101.33399398 -39.75020609 98.80960508 -38.109375 95.97265625 C-37.45678711 94.83715332 -36.80419922 93.70165039 -36.13183594 92.53173828 C-35.42148586 91.31267288 -34.71086816 90.09376337 -34 88.875 C-33.27589105 87.62250822 -32.5522627 86.36973848 -31.82910156 85.11669922 C-29.64697041 81.3422414 -27.45003116 77.57654456 -25.25 73.8125 C-24.60160156 72.70148926 -23.95320313 71.59047852 -23.28515625 70.44580078 C-15.76661374 57.58440394 -15.76661374 57.58440394 -13.48535156 53.91748047 C-12.07818769 51.63284533 -12.07818769 51.63284533 -10.78125 48.234375 C-6.92060376 44.54054681 -3.12409559 45.20507198 2.0546875 45.28515625 C3.35664062 45.33542969 4.65859375 45.38570312 6 45.4375 C7.31742188 45.46457031 8.63484375 45.49164063 9.9921875 45.51953125 C13.24548871 45.59025519 16.49794973 45.6978716 19.75 45.8125 C19.75 37.8925 19.75 29.9725 19.75 21.8125 C16.78 21.8125 13.81 21.8125 10.75 21.8125 C10.70875 22.6375 10.6675 23.4625 10.625 24.3125 C9.28862316 29.65800737 6.36166493 33.92148121 1.8671875 37.17578125 C0.20394928 38.13266516 -1.52063111 38.98107265 -3.25 39.8125 C-4.24 40.3075 -4.24 40.3075 -5.25 40.8125 C-12.38193194 41.54490379 -18.41041882 41.21066557 -24.25 36.8125 C-29.01664253 32.46976837 -32.34756172 28.3551775 -33.25 21.8125 C-33.5607784 14.0430399 -31.35573403 8.64592042 -26.25 2.8125 C-18.41206977 -3.69131444 -8.87509687 -5.18131832 0 0 Z M-22.25 6.8125 C-26.44114521 12.07829782 -27.70431666 16.11132928 -27.25 22.8125 C-25.20682161 28.48799553 -21.65252559 32.11123721 -16.25 34.8125 C-10.87528738 35.43643015 -5.85810631 35.77272144 -1.25 32.625 C2.30826925 29.54457986 4.47053697 27.09361698 5.0625 22.26171875 C5.32234398 16.26094674 4.92326721 12.43693123 0.75 7.8125 C-2.93240019 3.80518215 -6.41676249 2.97416205 -11.68359375 2.65234375 C-15.86059865 2.9130092 -18.95745343 4.2575447 -22.25 6.8125 Z M24.75 12.8125 C24.75 23.3725 24.75 33.9325 24.75 44.8125 C26.07 44.8125 27.39 44.8125 28.75 44.8125 C28.75 34.2525 28.75 23.6925 28.75 12.8125 C27.43 12.8125 26.11 12.8125 24.75 12.8125 Z M-1.25 50.8125 C3.05813806 59.42877612 7.29754803 67.73203284 12.25 75.9375 C13.38197165 77.82784888 14.51348562 79.71847191 15.64453125 81.609375 C16.17900879 82.50076172 16.71348633 83.39214844 17.26416016 84.31054688 C18.55910386 86.49105675 19.82700548 88.68259142 21.07421875 90.890625 C21.99654297 92.52257812 21.99654297 92.52257812 22.9375 94.1875 C23.44667969 95.10273437 23.95585938 96.01796875 24.48046875 96.9609375 C25.10888672 97.87746094 25.10888672 97.87746094 25.75 98.8125 C26.41 98.8125 27.07 98.8125 27.75 98.8125 C28.18231934 98.05332275 28.61463867 97.29414551 29.06005859 96.51196289 C31.08048802 92.96561287 33.10238947 89.42010635 35.125 85.875 C35.4880423 85.2384549 35.85108459 84.60190979 36.22512817 83.94607544 C41.0507888 75.48823165 45.90473471 67.05035403 50.91748047 58.70141602 C52.47777252 56.08434014 53.78261056 53.71466832 54.75 50.8125 C36.27 50.8125 17.79 50.8125 -1.25 50.8125 Z M-7.25 53.8125 C-7.6217334 54.48079834 -7.9934668 55.14909668 -8.37646484 55.83764648 C-25.64453753 86.85365931 -25.64453753 86.85365931 -33.01953125 98.640625 C-34.4143112 100.68648631 -34.4143112 100.68648631 -34.25 102.8125 C-15.77 102.8125 2.71 102.8125 21.75 102.8125 C17.03061552 93.28588301 17.03061552 93.28588301 11.875 84.0859375 C11.54258301 83.52734039 11.21016602 82.96874329 10.86767578 82.39321899 C9.83238738 80.65559147 8.79136973 78.92148806 7.75 77.1875 C7.05690459 76.02627261 6.36419516 74.86481476 5.671875 73.703125 C4.33244289 71.45880936 2.99010783 69.21622307 1.64453125 66.97558594 C0.4046751 64.90553745 -0.82742331 62.83081775 -2.05078125 60.75097656 C-2.59089844 59.83541992 -3.13101563 58.91986328 -3.6875 57.9765625 C-4.16058594 57.16912598 -4.63367188 56.36168945 -5.12109375 55.52978516 C-5.67990234 54.679729 -5.67990234 54.679729 -6.25 53.8125 C-6.58 53.8125 -6.91 53.8125 -7.25 53.8125 Z M58.75 54.8125 C57.0902233 57.40687789 55.56221644 60.00124795 54.0625 62.6875 C53.08243735 64.41429305 52.10194352 66.14084143 51.12109375 67.8671875 C50.32034424 69.28402832 50.32034424 69.28402832 49.50341797 70.72949219 C47.59581469 74.08360166 45.66261738 77.42236848 43.72265625 80.7578125 C43.03665821 81.93893914 42.35070433 83.12009142 41.66479492 84.30126953 C40.31620738 86.62344578 38.96580595 88.94453671 37.61450195 91.26513672 C36.6877063 92.86639404 36.6877063 92.86639404 35.7421875 94.5 C35.18901855 95.45261719 34.63584961 96.40523437 34.06591797 97.38671875 C32.64413842 99.8394212 32.64413842 99.8394212 31.75 102.8125 C50.23 102.8125 68.71 102.8125 87.75 102.8125 C86.33374408 99.27186021 85.08653839 96.51444685 83.140625 93.3359375 C82.63619873 92.50578125 82.13177246 91.675625 81.61206055 90.8203125 C81.08008057 89.95148438 80.54810059 89.08265625 80 88.1875 C76.23325586 81.977809 72.55174217 75.75866713 69.12109375 69.35546875 C67.45052906 66.25707099 65.73840814 63.18587814 64 60.125 C63.42765625 59.11050781 62.8553125 58.09601563 62.265625 57.05078125 C61.76546875 56.31214844 61.2653125 55.57351562 60.75 54.8125 C60.09 54.8125 59.43 54.8125 58.75 54.8125 Z M-34.25 107.8125 C-33.01540872 110.8989782 -31.93785459 113.55175482 -30.359375 116.39453125 C-29.98619141 117.06806641 -29.61300781 117.74160156 -29.22851562 118.43554688 C-28.82310547 119.15806641 -28.41769531 119.88058594 -28 120.625 C-27.36094727 121.7687207 -27.36094727 121.7687207 -26.70898438 122.93554688 C-22.78198071 129.9286128 -18.77602597 136.87607502 -14.75 143.8125 C-14.13866211 144.86928955 -13.52732422 145.9260791 -12.89746094 147.01489258 C-12.03556152 148.49252075 -12.03556152 148.49252075 -11.15625 150 C-10.64384766 150.88042969 -10.13144531 151.76085937 -9.60351562 152.66796875 C-8.29726027 154.91228089 -8.29726027 154.91228089 -6.25 156.8125 C0.1377972 146.04065028 6.51576829 135.26290486 12.8125 124.4375 C13.47245972 123.3086438 13.47245972 123.3086438 14.14575195 122.15698242 C14.77163208 121.07767456 14.77163208 121.07767456 15.41015625 119.9765625 C15.76730713 119.36248535 16.12445801 118.7484082 16.49243164 118.11572266 C18.34017849 114.73159457 20.02567455 111.26115091 21.75 107.8125 C3.27 107.8125 -15.21 107.8125 -34.25 107.8125 Z M31.75 107.8125 C36.04257427 116.39764855 40.26329764 124.6902278 45.1875 132.875 C45.74590576 133.81166504 46.30431152 134.74833008 46.87963867 135.71337891 C51.10547809 142.78593903 55.38576288 149.8244466 59.75 156.8125 C62.11783557 153.79027107 64.06745855 150.66354129 65.97265625 147.33203125 C66.58939209 146.25759766 67.20612793 145.18316406 67.84155273 144.07617188 C68.49196533 142.93728516 69.14237793 141.79839844 69.8125 140.625 C71.15752876 138.27658249 72.50428713 135.92916049 73.8515625 133.58203125 C74.18431686 133.00188263 74.51707123 132.42173401 74.85990906 131.82400513 C78.15892069 126.08160611 81.53060165 120.38240974 84.95532227 114.71411133 C87.05333614 111.48892617 87.05333614 111.48892617 87.75 107.8125 C69.27 107.8125 50.79 107.8125 31.75 107.8125 Z M25.75 111.8125 C21.08070502 119.89345475 16.41610114 127.97709937 11.75726318 136.06408691 C10.79228042 137.73910941 9.82705399 139.41399152 8.86181641 141.08886719 C7.17620321 144.01614606 5.49374304 146.94520954 3.8125 149.875 C3.29913086 150.76598389 2.78576172 151.65696777 2.25683594 152.57495117 C1.79180664 153.38681885 1.32677734 154.19868652 0.84765625 155.03515625 C0.44039307 155.74422119 0.03312988 156.45328613 -0.38647461 157.18383789 C-1.32807255 158.65251211 -1.32807255 158.65251211 -1.25 159.8125 C17.23 159.8125 35.71 159.8125 54.75 159.8125 C50.0185244 150.26269068 50.0185244 150.26269068 44.83984375 141.05078125 C44.50505508 140.48981247 44.17026642 139.92884369 43.82533264 139.35087585 C42.78339883 137.60647683 41.73583701 135.86555675 40.6875 134.125 C36.26277375 126.74840635 31.85481903 119.37387925 27.75 111.8125 C27.09 111.8125 26.43 111.8125 25.75 111.8125 Z " fill="#010101" transform="translate(73.25,22.1875)"/>
<path d="M0 0 C0.74446381 0.00359528 1.48892761 0.00719055 2.25595093 0.01089478 C3.0363826 0.01074875 3.81681427 0.01060272 4.62089539 0.01045227 C7.21273534 0.01115158 9.80450432 0.01894481 12.39633179 0.02676392 C14.18852194 0.02862803 15.9807126 0.03005196 17.77290344 0.03105164 C22.49938351 0.03487733 27.22583305 0.04470805 31.95230103 0.05575562 C36.77153104 0.06596863 41.59076596 0.07054902 46.41000366 0.07559204 C55.87290773 0.08633027 65.3357891 0.10340731 74.79867554 0.12442017 C74.79867554 4.74442017 74.79867554 9.36442017 74.79867554 14.12442017 C53.67867554 14.12442017 32.55867554 14.12442017 10.79867554 14.12442017 C10.79867554 26.00442017 10.79867554 37.88442017 10.79867554 50.12442017 C29.27867554 50.12442017 47.75867554 50.12442017 66.79867554 50.12442017 C66.79867554 54.74442017 66.79867554 59.36442017 66.79867554 64.12442017 C48.31867554 64.12442017 29.83867554 64.12442017 10.79867554 64.12442017 C10.79867554 78.64442017 10.79867554 93.16442017 10.79867554 108.12442017 C32.24867554 108.12442017 53.69867554 108.12442017 75.79867554 108.12442017 C75.79867554 112.74442017 75.79867554 117.36442017 75.79867554 122.12442017 C48.73867554 122.12442017 21.67867554 122.12442017 -6.20132446 122.12442017 C-6.24148813 91.92580416 -6.24148813 91.92580416 -6.25157833 77.06115818 C-6.25713016 69.00631182 -6.2641899 60.95147575 -6.27676392 52.89663696 C-6.28671097 46.52158998 -6.29317794 40.14655076 -6.29541296 33.77149624 C-6.29672003 30.39394003 -6.29980565 27.01640601 -6.30705452 23.63885689 C-6.31426059 19.87434674 -6.31531559 16.10988331 -6.31484985 12.34536743 C-6.32024277 10.6536013 -6.32024277 10.6536013 -6.32574463 8.92765808 C-6.32436996 7.90817078 -6.3229953 6.88868347 -6.32157898 5.83830261 C-6.32250077 4.9469288 -6.32342257 4.05555498 -6.32437229 3.13716984 C-6.07446926 -0.95060844 -3.48138326 0.00709516 0 0 Z " fill="#000000" transform="translate(259.2013244628906,48.875579833984375)"/>
<path d="M0 0 C1.92987268 1.67829999 3.77142609 3.39024706 5.5625 5.21484375 C6.0575 5.70984375 6.0575 5.70984375 6.5625 6.21484375 C6.62308594 5.50457031 6.68367187 4.79429688 6.74609375 4.0625 C6.87177734 2.68384766 6.87177734 2.68384766 7 1.27734375 C7.12181641 -0.09744141 7.12181641 -0.09744141 7.24609375 -1.5 C7.5625 -3.78515625 7.5625 -3.78515625 8.5625 -4.78515625 C13.1825 -4.78515625 17.8025 -4.78515625 22.5625 -4.78515625 C22.5625 36.13484375 22.5625 77.05484375 22.5625 119.21484375 C17.2825 119.21484375 12.0025 119.21484375 6.5625 119.21484375 C6.0675 98.42484375 6.0675 98.42484375 5.5625 77.21484375 C3.9125 78.86484375 2.2625 80.51484375 0.5625 82.21484375 C-8.03189887 88.85597015 -16.77462979 90.14881778 -27.4375 89.21484375 C-36.95528458 87.6062041 -44.07434482 82.64079681 -50.0625 75.171875 C-60.12114321 60.85545384 -61.17561507 43.2856448 -58.3125 26.46484375 C-56.79455834 19.62694619 -54.30649452 14.03317822 -50.4375 8.21484375 C-50.04691406 7.621875 -49.65632812 7.02890625 -49.25390625 6.41796875 C-43.59294578 -1.18221347 -35.68992221 -4.61242753 -26.63671875 -6.37890625 C-17.41400807 -7.55004411 -7.58542995 -5.55535495 0 0 Z M-34.75 14.58984375 C-42.73321446 24.82306987 -43.26375276 36.62432543 -42.4375 49.21484375 C-41.21195397 57.94814652 -38.48769081 66.15717599 -31.41015625 71.84375 C-25.78903938 75.51788785 -21.20344354 76.65851218 -14.4375 76.21484375 C-7.52517416 74.68546155 -1.93012263 72.10610463 1.96875 66.01953125 C8.30027904 54.27675355 9.34442739 40.57385655 6.3125 27.625 C3.92263543 19.94507062 0.5085234 13.57082453 -6.4375 9.21484375 C-16.45107874 4.39902644 -27.38722293 6.47098689 -34.75 14.58984375 Z " fill="#000000" transform="translate(860.4375,83.78515625)"/>
<path d="M0 0 C8.72416798 7.84648508 12.43350727 18.60732559 14 30 C14 33.96 14 37.92 14 42 C-8.11 42 -30.22 42 -53 42 C-49.40054854 59.05029454 -49.40054854 59.05029454 -38.31640625 69.87109375 C-32.03151628 72.93405025 -24.95990177 72.7746677 -18.375 70.8125 C-10.27344516 67.79181718 -6.67998111 62.47394395 -3 55 C-1.24859857 55.45294865 0.50107344 55.91258748 2.25 56.375 C3.71179688 56.75785156 3.71179688 56.75785156 5.203125 57.1484375 C7.65837303 57.89598509 9.75617405 58.77123817 12 60 C10.07836052 68.32710441 4.04026715 74.90704937 -2.81640625 79.71875 C-13.74502529 86.13124919 -26.03503153 87.80122788 -38.40234375 85.31640625 C-49.27586231 81.94379625 -56.7358415 76.48619303 -63 67 C-63.40089844 66.39671875 -63.80179688 65.7934375 -64.21484375 65.171875 C-71.61740815 52.32214057 -71.35423383 35.41048651 -68.03125 21.45703125 C-64.4935774 9.59778789 -58.14367765 0.07904779 -47.125 -5.9375 C-31.56229596 -12.87827387 -13.22602642 -10.81233817 0 0 Z M-45.3125 11.375 C-50.2440826 17.70029073 -51.06832122 21.61489102 -52 30 C-36.16 30 -20.32 30 -4 30 C-5.32755264 20.70713151 -7.28919256 13.969132 -14.12109375 7.375 C-23.87242761 0.23888874 -37.54292048 2.82846253 -45.3125 11.375 Z " fill="#000000" transform="translate(586,87)"/>
<path d="M0 0 C9.86109899 8.47678527 14.17658777 21.2508689 15.25390625 33.9375 C15.25390625 36.9075 15.25390625 39.8775 15.25390625 42.9375 C-6.85609375 42.9375 -28.96609375 42.9375 -51.74609375 42.9375 C-48.66004918 58.94620085 -48.66004918 58.94620085 -38.74609375 69.875 C-32.67230446 73.25184554 -26.19808038 73.94830164 -19.40625 72.40625 C-13.72243387 70.66611328 -9.39084729 68.83062604 -6.3359375 63.45703125 C-5.07854327 60.9737652 -3.88498723 58.47699015 -2.74609375 55.9375 C2.94530527 57.03448167 7.99958562 58.47803077 13.25390625 60.9375 C8.05348857 71.91379142 2.65843834 79.21424874 -8.76171875 84.2734375 C-21.37142089 88.65266903 -34.24596518 88.47661197 -46.296875 82.71875 C-56.38563166 77.20744135 -63.09907344 69.02752745 -66.6484375 58.1796875 C-71.04960676 41.99474247 -70.03393842 24.54362377 -61.8671875 9.671875 C-55.5524382 -0.09728419 -46.9473636 -5.84520553 -35.55859375 -8.3125 C-22.74073596 -10.40198641 -10.38207417 -7.79874116 0 0 Z M-43.45703125 10.66796875 C-48.47672501 16.80178966 -50.74609375 23.04730012 -50.74609375 30.9375 C-34.90609375 30.9375 -19.06609375 30.9375 -2.74609375 30.9375 C-4.78225424 20.75669756 -6.07742439 14.63444578 -13.8671875 8.1640625 C-22.86371937 2.29106665 -35.83512699 2.95905645 -43.45703125 10.66796875 Z " fill="#000000" transform="translate(1066.74609375,86.0625)"/>
<path d="M0 0 C1.10106079 0.1244751 1.10106079 0.1244751 2.22436523 0.25146484 C8.87743929 1.16827579 14.14709404 3.63221038 19.6875 7.4375 C19.6875 8.0975 19.6875 8.7575 19.6875 9.4375 C20.6775 9.7675 21.6675 10.0975 22.6875 10.4375 C26.9218708 15.34496443 28.3464634 20.07148343 28.6875 26.4375 C26.79364563 26.94494423 24.89731334 27.44314574 23 27.9375 C21.94425781 28.2159375 20.88851562 28.494375 19.80078125 28.78125 C16.97607328 29.3766715 14.55913292 29.56536492 11.6875 29.4375 C11.52894531 28.76203125 11.37039063 28.0865625 11.20703125 27.390625 C10.14282504 23.3219471 9.31401124 20.17457205 6.5625 16.9375 C-2.38595909 12.26873874 -10.62437865 13.47262819 -20.078125 16.25 C-22.4406468 17.23732552 -22.4406468 17.23732552 -23.34375 19.390625 C-24.1298895 23.24270854 -24.44880136 25.88180985 -23.5 29.75 C-18.27632002 36.16766398 -9.24035643 37.29216903 -1.5 38.8125 C9.11176055 41.07962229 19.83012792 43.52017307 26.640625 52.734375 C30.50016056 59.01332092 30.72230136 66.52436748 29.22265625 73.64453125 C26.70612123 81.1941363 21.89641017 87.52055102 14.92578125 91.40625 C2.47674434 97.14193193 -11.64354205 97.218746 -24.47265625 92.69921875 C-28.67256112 90.83323626 -31.98038421 88.5866163 -35.3125 85.4375 C-35.86550781 84.93605469 -36.41851562 84.43460937 -36.98828125 83.91796875 C-41.80404408 79.00660765 -45.3125 71.39677632 -45.3125 64.4375 C-43.23202703 63.9053559 -41.14797707 63.38718214 -39.0625 62.875 C-37.90234375 62.58496094 -36.7421875 62.29492188 -35.546875 61.99609375 C-32.59159017 61.48570036 -31.06815899 61.40753835 -28.3125 62.4375 C-28.23773438 63.00597656 -28.16296875 63.57445312 -28.0859375 64.16015625 C-27.04662936 70.26354428 -25.25019828 74.53597823 -20.3125 78.4375 C-13.75100315 81.96289314 -6.29940575 82.483704 0.921875 80.96875 C5.96997731 79.37461243 8.83793382 77.01407598 11.6875 72.4375 C12.95299557 68.4995293 12.89504731 65.20838999 11.8125 61.1875 C6.10810282 53.80533894 -5.07729962 53.04131081 -13.69726562 51.45898438 C-22.94422536 49.62441721 -31.07739116 46.77379695 -37.15625 39.28125 C-41.09724417 32.996962 -40.99471991 26.65328746 -40.3125 19.4375 C-38.5949257 12.81722944 -33.97591289 8.05987772 -28.3125 4.4375 C-19.10210494 0.35224413 -9.95848474 -1.14407365 0 0 Z " fill="#000000" transform="translate(386.3125,77.5625)"/>
<path d="M0 0 C6.98428843 5.79935206 10.14319602 11.3193613 11.45703125 20.23828125 C9.37501597 20.74374161 7.29136058 21.2424496 5.20703125 21.73828125 C4.046875 22.01671875 2.88671875 22.29515625 1.69140625 22.58203125 C-1.54296875 23.23828125 -1.54296875 23.23828125 -5.54296875 23.23828125 C-6.87630208 19.23828125 -8.20963542 15.23828125 -9.54296875 11.23828125 C-11.69394808 10.05799841 -11.69394808 10.05799841 -14.54296875 9.23828125 C-16.36828125 8.65046875 -16.36828125 8.65046875 -18.23046875 8.05078125 C-24.34184671 6.59514113 -30.12669833 7.35963746 -35.98046875 9.48828125 C-38.94116325 11.51021896 -40.16023652 12.93508758 -41.54296875 16.23828125 C-41.87637346 19.28023552 -41.87637346 19.28023552 -41.54296875 22.23828125 C-41.48109375 22.98078125 -41.41921875 23.72328125 -41.35546875 24.48828125 C-40.66707704 26.46929105 -40.66707704 26.46929105 -38.3515625 27.23046875 C-31.02063409 29.86103833 -23.62478274 32.04270426 -16.01416016 33.69091797 C-4.6999206 36.16070031 3.54375943 39.40332908 10.45703125 49.23828125 C12.68204486 55.91332208 12.86899486 66.36882149 9.89453125 72.80078125 C8.765625 74.57421875 8.765625 74.57421875 7.45703125 76.23828125 C6.99425781 76.84929687 6.53148437 77.4603125 6.0546875 78.08984375 C0.66349933 84.28509666 -7.53214597 87.76417074 -15.54296875 89.23828125 C-28.98178635 90.17089544 -40.56762498 88.52241374 -51.93359375 80.703125 C-53.54296875 79.23828125 -53.54296875 79.23828125 -54.54296875 76.23828125 C-55.20296875 76.23828125 -55.86296875 76.23828125 -56.54296875 76.23828125 C-59.90858466 70.17768875 -62.15627416 65.19878378 -62.54296875 58.23828125 C-60.43976812 57.73423317 -58.33537084 57.23517617 -56.23046875 56.73828125 C-55.05871094 56.45984375 -53.88695312 56.18140625 -52.6796875 55.89453125 C-49.54296875 55.23828125 -49.54296875 55.23828125 -46.54296875 55.23828125 C-46.3728125 55.97433594 -46.20265625 56.71039063 -46.02734375 57.46875 C-44.28519708 65.18377764 -44.28519708 65.18377764 -39.54296875 71.23828125 C-31.64421525 75.61520521 -24.4783133 76.2091687 -15.73046875 74.48828125 C-11.71814965 72.91482278 -8.68535218 71.14225364 -6.4296875 67.3828125 C-4.90261263 63.68957855 -5.02301669 60.15900081 -5.54296875 56.23828125 C-7.03050312 52.89132892 -8.53769989 51.69491185 -11.84765625 50.19140625 C-18.00067642 47.97563721 -24.28280081 46.63033554 -30.66796875 45.30078125 C-41.43982782 43.03431677 -49.14967217 39.78728424 -56.29296875 31.11328125 C-59.37156867 24.03250143 -59.16421377 16.38713132 -56.54296875 9.23828125 C-53.35386338 2.72141376 -48.1011995 -0.93150444 -41.54296875 -3.76171875 C-27.74702286 -7.96314192 -12.30092882 -8.52184162 0 0 Z " fill="#000000" transform="translate(490.54296875,83.76171875)"/>
<path d="M0 0 C6.01524769 5.4964501 9.24576 13.5720588 10.3125 21.5 C10.39601102 23.71473224 10.43033726 25.93164726 10.42602539 28.14794922 C10.42591209 30.09929276 10.42591209 30.09929276 10.42579651 32.09005737 C10.42069101 33.49493448 10.41547504 34.89981119 10.41015625 36.3046875 C10.40828923 37.75342764 10.40686667 39.20216842 10.40586853 40.65090942 C10.40206573 44.44846363 10.39225474 48.24597908 10.38116455 52.04351807 C10.37090215 55.92484005 10.36636059 59.80616834 10.36132812 63.6875 C10.3506303 71.29168631 10.3330518 78.89583277 10.3125 86.5 C5.3625 86.5 0.4125 86.5 -4.6875 86.5 C-4.70208252 84.77555664 -4.71666504 83.05111328 -4.73168945 81.27441406 C-4.78366046 75.53071876 -4.84902905 69.78725665 -4.92321491 64.0438118 C-4.96764835 60.5668298 -5.00696083 57.08995772 -5.03393555 53.61279297 C-5.0652954 49.60094962 -5.12006921 45.58970468 -5.17578125 41.578125 C-5.18217117 40.34950745 -5.1885611 39.12088989 -5.19514465 37.8550415 C-5.35659398 28.22788102 -6.14413546 18.65821904 -11.6875 10.5 C-17.21671314 6.28033734 -24.0638084 6.78655464 -30.6875 7.5 C-36.91398471 9.19537995 -41.21752138 13.15406419 -44.6875 18.5 C-47.78211694 24.74967561 -48.77876673 31.19708939 -48.89282227 38.13818359 C-48.91276749 39.21885101 -48.93271271 40.29951843 -48.95326233 41.41293335 C-48.96997482 42.56314972 -48.98668732 43.71336609 -49.00390625 44.8984375 C-49.02468735 46.08853424 -49.04546844 47.27863098 -49.06687927 48.50479126 C-49.13210095 52.29480385 -49.19113234 56.08488391 -49.25 59.875 C-49.29321126 62.44922564 -49.33682638 65.02344453 -49.38085938 67.59765625 C-49.48775425 73.89836682 -49.58957088 80.19914404 -49.6875 86.5 C-52.16673801 86.52685095 -54.6456884 86.54676547 -57.125 86.5625 C-57.83205078 86.57087891 -58.53910156 86.57925781 -59.26757812 86.58789062 C-61.07443559 86.59653588 -62.88137603 86.55220011 -64.6875 86.5 C-66.51868084 84.66881916 -65.81395259 82.11232955 -65.82302856 79.6751709 C-65.82100433 78.83877075 -65.8189801 78.00237061 -65.81689453 77.140625 C-65.81864685 76.26426392 -65.82039917 75.38790283 -65.82220459 74.48498535 C-65.82662432 71.57330373 -65.82368469 68.6616823 -65.8203125 65.75 C-65.8209855 63.73600248 -65.8219555 61.72200505 -65.82321167 59.70800781 C-65.82468881 55.48111195 -65.82253358 51.25423717 -65.81787109 47.02734375 C-65.8121738 41.59619468 -65.81545272 36.16509501 -65.82144356 30.73394775 C-65.82504874 26.57340113 -65.82391078 22.41286631 -65.82131577 18.25231934 C-65.82064638 16.24914545 -65.82147533 14.24597051 -65.82379532 12.24279785 C-65.82632115 9.44829448 -65.82248224 6.65387229 -65.81689453 3.859375 C-65.81891876 3.02297485 -65.82094299 2.18657471 -65.82302856 1.3248291 C-65.80176242 -4.38573758 -65.80176242 -4.38573758 -64.6875 -5.5 C-62.33436445 -5.57271741 -59.97916332 -5.58370868 -57.625 -5.5625 C-56.33464844 -5.55347656 -55.04429687 -5.54445313 -53.71484375 -5.53515625 C-52.71582031 -5.52355469 -51.71679688 -5.51195313 -50.6875 -5.5 C-50.3575 -1.54 -50.0275 2.42 -49.6875 6.5 C-47.955 4.64375 -47.955 4.64375 -46.1875 2.75 C-33.43856575 -9.93171667 -14.3913824 -10.65213675 0 0 Z " fill="#000000" transform="translate(682.6875,84.5)"/>
<path d="M0 0 C4.95 0 9.9 0 15 0 C15.01981934 1.69415039 15.03963867 3.38830078 15.06005859 5.13378906 C15.12826623 10.77765477 15.20507032 16.42136139 15.28752708 22.06503677 C15.33713664 25.48146891 15.3834645 28.89787527 15.421875 32.31445312 C15.46634728 36.25667596 15.52584445 40.19860826 15.5859375 44.140625 C15.59748871 45.34736877 15.60903992 46.55411255 15.62094116 47.79742432 C15.67232963 63.32866144 15.67232963 63.32866144 22 77 C26.87661939 80.01266709 32.37795977 80.79846097 38 80 C44.45460979 78.42897233 49.69548392 75.47273337 53.41015625 69.875 C58.87007201 59.94209204 59.28964036 49.00400636 59.4140625 37.890625 C59.43342865 36.79780212 59.4527948 35.70497925 59.4727478 34.57904053 C59.53186422 31.13610295 59.57865388 27.69313068 59.625 24.25 C59.66324246 21.89581987 59.70229769 19.54165279 59.7421875 17.1875 C59.83750874 11.45844111 59.92178624 5.72931693 60 0 C64.95 0 69.9 0 75 0 C75 30.36 75 60.72 75 92 C70.38 92 65.76 92 61 92 C60 91 60 91 59.90234375 88.93359375 C59.91394531 88.10988281 59.92554688 87.28617187 59.9375 86.4375 C59.94652344 85.61121094 59.95554687 84.78492188 59.96484375 83.93359375 C59.97644531 83.29550781 59.98804688 82.65742188 60 82 C57.9072569 81.7659471 57.9072569 81.7659471 56.58984375 83.390625 C56.04457031 84.00421875 55.49929688 84.6178125 54.9375 85.25 C48.68690629 91.70981861 40.75406186 94.10895847 31.9375 94.3125 C23.83749538 94.23969097 17.48532102 92.23586632 10.6875 87.875 C0.49528708 76.97170246 -0.30055193 65.79331769 -0.1953125 51.5625 C-0.19157647 50.07177928 -0.18873229 48.58105609 -0.18673706 47.09033203 C-0.17914703 43.19082712 -0.15953904 39.29147419 -0.1373291 35.39202881 C-0.11677022 31.40330053 -0.10771399 27.41454739 -0.09765625 23.42578125 C-0.07628815 15.61711061 -0.04114452 7.80859607 0 0 Z M60 78 C61 80 61 80 61 80 Z " fill="#000000" transform="translate(905,79)"/>
<path d="M0 0 C0 6.93 0 13.86 0 21 C5.54973121 20.96042519 5.54973121 20.96042519 11.09936523 20.90991211 C13.06645974 20.90276909 15.03353621 20.94968107 17 21 C18 22 18 22 18.09765625 24.94140625 C18.06510417 28.29427083 18.03255208 31.64713542 18 35 C12.06 35 6.12 35 0 35 C0.33 56.12 0.66 77.24 1 99 C6.61 99.33 12.22 99.66 18 100 C18 104.29 18 108.58 18 113 C14.29122416 113.08114826 10.58423489 113.14057594 6.875 113.1875 C5.30492187 113.22520508 5.30492187 113.22520508 3.703125 113.26367188 C-1.94164903 113.3172615 -6.17598973 113.30228996 -11 110 C-15.40685895 105.23582816 -16.12548387 101.88290353 -16.11352539 95.5090332 C-16.11367142 94.8551059 -16.11381744 94.20117859 -16.1139679 93.5274353 C-16.11327188 91.36851674 -16.10549408 89.20968472 -16.09765625 87.05078125 C-16.09579096 85.55291287 -16.09436758 84.05504389 -16.09336853 82.55717468 C-16.08955207 78.61654981 -16.0797292 74.67596186 -16.06866455 70.73535156 C-16.05843172 66.71354675 -16.0538669 62.69173596 -16.04882812 58.66992188 C-16.03810616 50.7799291 -16.02051639 42.88997339 -16 35 C-20.62 35 -25.24 35 -30 35 C-30.09765625 24.94140625 -30.09765625 24.94140625 -30 22 C-29 21 -29 21 -26.05859375 20.90234375 C-22.70572917 20.93489583 -19.35286458 20.96744792 -16 21 C-16 15.06 -16 9.12 -16 3 C-4.5 0 -4.5 0 0 0 Z " fill="#000000" transform="translate(734,58)"/>
<path d="M0 0 C1.1859375 0.00257812 2.371875 0.00515625 3.59375 0.0078125 C4.7796875 0.00523438 5.965625 0.00265625 7.1875 0 C10.09375 0.1328125 10.09375 0.1328125 11.09375 1.1328125 C11.18895906 3.96321922 11.21928631 6.76916243 11.20727539 9.59985352 C11.20742142 10.48757446 11.20756744 11.37529541 11.2077179 12.28991699 C11.20701843 15.23887534 11.19922448 18.18777137 11.19140625 21.13671875 C11.18954219 23.17553167 11.18811823 25.21434504 11.18711853 27.25315857 C11.18329241 32.63065824 11.17346132 38.00813108 11.16241455 43.38562012 C11.15220245 48.86840451 11.14762134 54.35119322 11.14257812 59.83398438 C11.13183914 70.60027223 11.11476159 81.36654014 11.09375 92.1328125 C6.14375 92.1328125 1.19375 92.1328125 -3.90625 92.1328125 C-3.92937202 80.28516077 -3.94716437 68.43751436 -3.95806217 56.5898447 C-3.96329131 51.08910388 -3.97038951 45.58837845 -3.98168945 40.08764648 C-3.99251725 34.7838469 -3.9985266 29.48006215 -4.00112724 24.17625237 C-4.00298169 22.14795638 -4.00660267 20.11966124 -4.01198006 18.09137154 C-4.01918906 15.26084736 -4.020241 12.43038532 -4.01977539 9.59985352 C-4.02337067 8.75253159 -4.02696594 7.90520966 -4.03067017 7.0322113 C-4.01839673 0.18363641 -4.01839673 0.18363641 0 0 Z " fill="#000000" transform="translate(772.90625,78.8671875)"/>
<path d="M0 0 C3.16418513 3.2572494 3.99514401 5.01879608 4.5 9.5625 C4.05015417 13.91100969 2.92290424 15.86026253 0.125 19.1875 C-2.84606942 21.59647521 -4.5495346 22.15262871 -8.375 22.5625 C-13.30717625 22.03405254 -15.59824761 20.36073192 -19.1875 17.0625 C-21.54960763 13.03816848 -21.91590597 9.73952165 -20.875 5.1875 C-18.91152972 1.77992901 -16.70238081 -1.15960346 -12.91796875 -2.51171875 C-8.02424984 -3.23220892 -4.10898384 -2.59044633 0 0 Z " fill="#000000" transform="translate(784.875,43.8125)"/>
</svg>
